<?xml version="1.0" encoding="UTF-8" standalone="no"?>
<!-- Created with Inkscape (http://www.inkscape.org/) -->

<svg
   width="78.327759mm"
   height="70.724121mm"
   viewBox="0 0 78.327759 70.724121"
   version="1.1"
   id="svg5"
   xml:space="preserve"
   xmlns:inkscape="http://www.inkscape.org/namespaces/inkscape"
   xmlns:sodipodi="http://sodipodi.sourceforge.net/DTD/sodipodi-0.dtd"
   xmlns="http://www.w3.org/2000/svg"
   xmlns:svg="http://www.w3.org/2000/svg"><sodipodi:namedview
     id="namedview7"
     pagecolor="#ffffff"
     bordercolor="#000000"
     borderopacity="0.25"
     inkscape:showpageshadow="2"
     inkscape:pageopacity="0.0"
     inkscape:pagecheckerboard="0"
     inkscape:deskcolor="#d1d1d1"
     inkscape:document-units="mm"
     showgrid="false"
     showguides="false" /><defs
     id="defs2" /><g
     inkscape:label="Ebene 1"
     inkscape:groupmode="layer"
     id="layer1"
     transform="translate(-63.648958,-144.9302)"><path
       style="fill:#000000;stroke-width:0.352778"
       d="m 76.401688,215.65433 -12.752732,-45.77654 39.692614,-24.94758 38.63515,24.56295 -10.70937,46.16117 z m 52.474702,-2.46944 c 3.38603,-13.62728 10.46939,-42.45674 10.46939,-42.45674 l -35.78933,-22.64985 -37.078443,22.58217 11.818602,42.52442 z m -28.08648,-4.60819 -22.483351,-16.85903 22.399291,4.87971 0.34864,12.00136 -0.2105,-0.0176 -1.1e-4,-1e-5 c -3.478286,1.25638 -0.0376,-0.003 -0.054,-0.004 z m -0.970139,-15.19528 c -7.245475,-1.71366 -15.055001,-3.8913 -22.23064,-5.76163 l 10.97324,-4.97828 6.91651,6.31389 c 1.453914,1.26856 3.843613,3.6153 4.34089,4.42602 z m 6.173609,-0.17316 11.47986,-10.99368 9.79557,6.22832 z m -3.44458,-2.00126 -11.970154,-11.08458 11.788734,-24.51453 12.72658,24.40566 c -4.20087,3.69322 -8.24451,7.68381 -12.54516,11.19345 z m 24.79906,0.61854 -22.01918,4.7224 0.24131,12.60799 z"
       id="path320"
       sodipodi:nodetypes="cccccccccccccccccccccccccccccccccccccc"
       inkscape:export-filename="path320.svg"
       inkscape:export-xdpi="96"
       inkscape:export-ydpi="96" /></g></svg>
