<?xml version="1.0" encoding="UTF-8" standalone="no"?>
<!-- Created with Inkscape (http://www.inkscape.org/) -->

<svg
   width="78.327759mm"
   height="70.724121mm"
   viewBox="0 0 78.327759 70.724121"
   version="1.1"
   id="svg5"
   xml:space="preserve"
   xmlns:inkscape="http://www.inkscape.org/namespaces/inkscape"
   xmlns:sodipodi="http://sodipodi.sourceforge.net/DTD/sodipodi-0.dtd"
   xmlns="http://www.w3.org/2000/svg"
   xmlns:svg="http://www.w3.org/2000/svg"><sodipodi:namedview
     id="namedview7"
     pagecolor="#ffffff"
     bordercolor="#000000"
     borderopacity="0.25"
     inkscape:showpageshadow="2"
     inkscape:pageopacity="0.0"
     inkscape:pagecheckerboard="0"
     inkscape:deskcolor="#d1d1d1"
     inkscape:document-units="mm"
     showgrid="false"
     showguides="false" /><defs
     id="defs2" /><g
     inkscape:label="Ebene 1"
     inkscape:groupmode="layer"
     id="layer1"
     transform="translate(-63.648958,-144.9302)"><path
       style="fill:#000000;stroke-width:0.352778"
       d="m 76.401688,215.65433 -12.752732,-45.77654 39.692614,-24.94758 38.63515,24.56295 -10.70937,46.16117 z m 52.474702,-2.46944 c 3.38603,-13.62728 10.46939,-42.45674 10.46939,-42.45674 l -35.78933,-22.64985 -37.078443,22.58217 11.818602,42.52442 z"
       id="path320"
       sodipodi:nodetypes="cccccccccccc"
       inkscape:export-filename="enis__symbolik__geschlechtersymbol_ohne_beschriftung_transparent_monochrom__vektor__v01.svg"
       inkscape:export-xdpi="96"
       inkscape:export-ydpi="96" /><path
       id="path988"
       style="font-variation-settings:normal;opacity:1;vector-effect:none;fill:#000000;fill-opacity:1;stroke:#000000;stroke-width:0.117798;stroke-linecap:butt;stroke-linejoin:miter;stroke-miterlimit:4;stroke-dasharray:none;stroke-dashoffset:0;stroke-opacity:1;-inkscape-stroke:none;stop-color:#000000;stop-opacity:1"
       d="m 103.82415,160.77003 c -11.362461,5.9668 -21.776478,13.5932 -31.461642,22.49527 8.213233,8.86308 18.532312,16.14696 31.776352,21.23695 12.07237,-4.87469 21.95115,-12.4915 30.67513,-21.55166 -9.12924,-8.4227 -18.94372,-16.25802 -30.98984,-22.18056 z m 0.23565,10.08621 c 4.76351,0 26.75185,10.17473 26.75185,12.29124 0,2.00527 -21.99202,12.29175 -26.75185,12.29175 -4.987255,0 -26.751857,-10.06406 -26.751857,-12.29175 0,-1.78281 21.209676,-12.29124 26.751857,-12.29124 z m -0.39274,3.1104 a 9.2989779,9.2989779 0 0 0 -9.299177,9.29866 9.2989779,9.2989779 0 0 0 9.299177,9.29917 9.2989779,9.2989779 0 0 0 9.29865,-9.29917 9.2989779,9.2989779 0 0 0 -9.29865,-9.29866 z m -10.225218,3.00654 c -5.135647,0.94695 -8.891183,3.27419 -11.95586,6.29212 3.638042,2.41126 7.575419,4.62315 12.099003,6.44405 a 11.973236,11.973236 0 0 1 -0.287321,-0.45734 11.973236,11.973236 0 0 1 -0.418579,-0.79168 11.973236,11.973236 0 0 1 -0.357601,-0.82062 11.973236,11.973236 0 0 1 -0.296106,-0.84543 11.973236,11.973236 0 0 1 -0.23151,-0.86454 11.973236,11.973236 0 0 1 -0.166398,-0.88005 11.973236,11.973236 0 0 1 -0.100252,-0.88935 11.973236,11.973236 0 0 1 -0.03359,-0.89504 11.973236,11.973236 0 0 1 0.03359,-0.89452 11.973236,11.973236 0 0 1 0.100252,-0.88987 11.973236,11.973236 0 0 1 0.166398,-0.88005 11.973236,11.973236 0 0 1 0.23151,-0.86454 11.973236,11.973236 0 0 1 0.296106,-0.84543 11.973236,11.973236 0 0 1 0.357601,-0.82062 11.973236,11.973236 0 0 1 0.418579,-0.79169 11.973236,11.973236 0 0 1 0.145211,-0.23099 z m 20.779098,0 -0.001,0.0744 a 11.973236,11.973236 0 0 1 0.14521,0.23099 11.973236,11.973236 0 0 1 0.41858,0.79169 11.973236,11.973236 0 0 1 0.3576,0.82062 11.973236,11.973236 0 0 1 0.29611,0.84543 11.973236,11.973236 0 0 1 0.23151,0.86454 11.973236,11.973236 0 0 1 0.1664,0.88005 11.973236,11.973236 0 0 1 0.10025,0.88987 11.973236,11.973236 0 0 1 0.0336,0.89452 11.973236,11.973236 0 0 1 -0.0336,0.89504 11.973236,11.973236 0 0 1 -0.10025,0.88935 11.973236,11.973236 0 0 1 -0.1664,0.88005 11.973236,11.973236 0 0 1 -0.23151,0.86454 11.973236,11.973236 0 0 1 -0.29611,0.84543 11.973236,11.973236 0 0 1 -0.3576,0.82062 11.973236,11.973236 0 0 1 -0.41858,0.79168 11.973236,11.973236 0 0 1 -0.28732,0.45734 c 4.52361,-1.8209 8.46097,-4.03279 12.099,-6.44405 -3.06466,-3.01793 -6.82021,-5.34517 -11.95585,-6.29212 z m -10.55388,1.39784 a 4.8943172,4.8943172 0 0 1 4.89427,4.89428 4.8943172,4.8943172 0 0 1 -4.89427,4.89427 4.8943172,4.8943172 0 0 1 -4.894278,-4.89427 4.8943172,4.8943172 0 0 1 4.894278,-4.89428 z" /></g></svg>
