<?xml version="1.0" encoding="UTF-8" standalone="no"?>
<!-- Created with Inkscape (http://www.inkscape.org/) -->

<svg
   width="78.327759mm"
   height="70.724121mm"
   viewBox="0 0 78.327759 70.724121"
   version="1.1"
   id="svg5"
   xml:space="preserve"
   xmlns:inkscape="http://www.inkscape.org/namespaces/inkscape"
   xmlns:sodipodi="http://sodipodi.sourceforge.net/DTD/sodipodi-0.dtd"
   xmlns="http://www.w3.org/2000/svg"
   xmlns:svg="http://www.w3.org/2000/svg"><sodipodi:namedview
     id="namedview7"
     pagecolor="#ffffff"
     bordercolor="#000000"
     borderopacity="0.25"
     inkscape:showpageshadow="2"
     inkscape:pageopacity="0.0"
     inkscape:pagecheckerboard="0"
     inkscape:deskcolor="#d1d1d1"
     inkscape:document-units="mm"
     showgrid="false"
     showguides="false" /><defs
     id="defs2" /><g
     inkscape:label="Ebene 1"
     inkscape:groupmode="layer"
     id="layer1"
     transform="translate(-63.648958,-144.9302)"><path
       style="fill:#000000;stroke-width:0.352778"
       d="m 76.401688,215.65433 -12.752732,-45.77654 39.692614,-24.94758 38.63515,24.56295 -10.70937,46.16117 z m 52.474702,-2.46944 c 3.38603,-13.62728 10.46939,-42.45674 10.46939,-42.45674 l -35.78933,-22.64985 -37.078443,22.58217 11.818602,42.52442 z"
       id="path320"
       sodipodi:nodetypes="cccccccccccc"
       inkscape:export-filename="enor__symbolik__geschlechtersymbol_ohne_beschriftung_transparent_monochrom__vektor__v01.svg"
       inkscape:export-xdpi="96"
       inkscape:export-ydpi="96" /><path
       style="font-variation-settings:normal;opacity:1;vector-effect:none;fill:#000000;fill-opacity:1;stroke:none;stroke-width:0.117798;stroke-linecap:butt;stroke-linejoin:miter;stroke-miterlimit:4;stroke-dasharray:none;stroke-dashoffset:0;stroke-opacity:1;-inkscape-stroke:none;stop-color:#000000;stop-opacity:1"
       d="m 80.69968,186.88347 -1.415782,-16.83209 14.787075,10.38241 8.337397,-20.60752 8.33739,20.45021 14.94439,-10.38241 -1.5731,16.83209 C 109.2046,179.73869 94.773572,180.454 80.69968,186.88347 Z"
       id="path892"
       sodipodi:nodetypes="cccccccc" /><path
       id="path946"
       style="opacity:1;vector-effect:none;stroke-width:0.117798;stop-color:#000000;stop-opacity:1"
       d="m 122.27327,202.45709 -19.70759,5.82044 -20.336829,-5.82044 c 0,-10.9351 8.964248,-17.91203 20.022209,-17.91203 11.05796,0 20.02221,6.97693 20.02221,17.91203 z"
       sodipodi:nodetypes="cccsc" /></g></svg>
