<?xml version="1.0" encoding="UTF-8" standalone="no"?>
<!-- Created with Inkscape (http://www.inkscape.org/) -->

<svg
   width="78.327759mm"
   height="70.724121mm"
   viewBox="0 0 78.327759 70.724121"
   version="1.1"
   id="svg5"
   xml:space="preserve"
   xmlns:inkscape="http://www.inkscape.org/namespaces/inkscape"
   xmlns:sodipodi="http://sodipodi.sourceforge.net/DTD/sodipodi-0.dtd"
   xmlns="http://www.w3.org/2000/svg"
   xmlns:svg="http://www.w3.org/2000/svg"><sodipodi:namedview
     id="namedview7"
     pagecolor="#ffffff"
     bordercolor="#000000"
     borderopacity="0.25"
     inkscape:showpageshadow="2"
     inkscape:pageopacity="0.0"
     inkscape:pagecheckerboard="0"
     inkscape:deskcolor="#d1d1d1"
     inkscape:document-units="mm"
     showgrid="false"
     showguides="false" /><defs
     id="defs2" /><g
     inkscape:label="Ebene 1"
     inkscape:groupmode="layer"
     id="layer1"
     transform="translate(-63.648958,-144.9302)"><path
       style="fill:#000000;stroke-width:0.352778"
       d="m 76.401688,215.65433 -12.752732,-45.77654 39.692614,-24.94758 38.63515,24.56295 -10.70937,46.16117 z m 52.474702,-2.46944 c 3.38603,-13.62728 10.46939,-42.45674 10.46939,-42.45674 l -35.78933,-22.64985 -37.078443,22.58217 11.818602,42.52442 z"
       id="path320"
       sodipodi:nodetypes="cccccccccccc"
       inkscape:export-filename="enu__symbolik__geschlechtersymbol_ohne_beschriftung_transparent_monochrom__vektor__v01.svg"
       inkscape:export-xdpi="96"
       inkscape:export-ydpi="96" /><path
       id="path832"
       style="font-variation-settings:normal;opacity:1;vector-effect:none;fill:#000000;fill-opacity:1;stroke:none;stroke-width:0.117798;stroke-linecap:butt;stroke-linejoin:miter;stroke-miterlimit:4;stroke-dasharray:none;stroke-dashoffset:0;stroke-opacity:1;-inkscape-stroke:none;stop-color:#000000;stop-opacity:1"
       d="m 102.25422,159.51171 v 0.0744 c -7.145232,3.50251 -14.631422,5.98156 -22.183655,8.26307 2.82249,16.47545 9.85658,32.95358 22.022945,38.22609 0.0858,0.0445 0.15788,0.063 0.22884,0.0622 0.0772,-8.5e-4 0.15299,-0.0245 0.24348,-0.0622 15.3983,-9.92747 21.497,-25.12854 22.49527,-38.22609 -7.7118,-2.28185 -15.35677,-4.76129 -22.65288,-8.26462 v -0.0729 c -0.0526,0.065 -0.10475,0 -0.154,0 z"
       sodipodi:nodetypes="ccccccccccc" /></g></svg>
